# xmcd
#
# Track frame offsets:
#	150
#	14007
#	28382
#	43277
#	55757
#	67767
#	87227
#	101160
#	116060
#	129587
#	144355
#	156425
#
# Disc length: 2267
#
# Revision: 2
# Processed by: cddbd v1.5.1PL0 Copyright (c) Steve Scherf et al.
# Submitted via: audiograbber 1.80
# Normalized: r1:DSETVAR1
#
DISCID=ac08d90c
DTITLE=Various Artist - Country Road
DYEAR=1900
DGENRE=
TTITLE0=Jimmy Buffett - A Mile Higher In Denver
TTITLE1=Truck Stop - Highway 59
TTITLE2=Johnny Lee - Country Party
TTITLE3=Bobby G. Rice - Woman Steeler
TTITLE4=Dave Dudley - Rodeo Drifter
TTITLE5=Alabama - I Wanna Be With You Tonight
TTITLE6=Jimmy Buffett - Travelin´ Clean
TTITLE7=Earl Conley - High And Wild
TTITLE8=Mel Street - Smokey Mountain Memories
TTITLE9=Truck Stop - Detroit City
TTITLE10=Dave Dudley - Eagles Fly Alone
TTITLE11=Country Road - Kentucky Sunshine
EXTD=
EXTT0=
EXTT1=
EXTT2=
EXTT3=
EXTT4=
EXTT5=
EXTT6=
EXTT7=
EXTT8=
EXTT9=
EXTT10=
EXTT11=
PLAYORDER=
